<?xml version="1.0" encoding="UTF-8"?>
<svg xmlns="http://www.w3.org/2000/svg" xmlns:xlink="http://www.w3.org/1999/xlink" width="12px" height="12px" viewBox="0 0 12 12" version="1.1">
<g id="surface1">
<path style=" stroke:none;fill-rule:nonzero;fill:rgb(30.19608%,30.19608%,30.19608%);fill-opacity:1;" d="M 5.1875 6.476562 L 5.1875 1.15625 C 5.1875 0.71875 4.832031 0.367188 4.394531 0.367188 L 3.078125 0.367188 C 2.640625 0.367188 2.285156 0.71875 2.285156 1.15625 L 2.285156 6.476562 C 1.460938 6.980469 0.953125 7.878906 0.953125 8.851562 C 0.953125 10.386719 2.203125 11.632812 3.734375 11.632812 C 5.269531 11.632812 6.519531 10.386719 6.519531 8.851562 C 6.519531 7.878906 6.011719 6.980469 5.1875 6.476562 Z M 3.734375 11.15625 C 2.464844 11.15625 1.433594 10.121094 1.433594 8.851562 C 1.433594 8.003906 1.894531 7.226562 2.640625 6.824219 C 2.71875 6.78125 2.765625 6.703125 2.765625 6.613281 L 2.765625 1.15625 C 2.765625 0.984375 2.90625 0.84375 3.078125 0.84375 L 4.394531 0.84375 C 4.566406 0.84375 4.707031 0.984375 4.707031 1.15625 L 4.707031 6.613281 C 4.707031 6.703125 4.753906 6.78125 4.832031 6.824219 C 5.578125 7.226562 6.039062 8.003906 6.039062 8.851562 C 6.039062 10.121094 5.007812 11.15625 3.734375 11.15625 Z M 3.734375 11.15625 "/>
<path style=" stroke:none;fill-rule:nonzero;fill:rgb(30.19608%,30.19608%,30.19608%);fill-opacity:1;" d="M 4.394531 7.410156 L 4.394531 1.765625 C 4.394531 1.355469 4.101562 1.023438 3.734375 1.023438 C 3.371094 1.023438 3.074219 1.355469 3.074219 1.765625 L 3.074219 7.390625 C 2.488281 7.640625 2.101562 8.214844 2.101562 8.871094 C 2.101562 9.761719 2.824219 10.484375 3.714844 10.484375 C 4.605469 10.484375 5.328125 9.761719 5.328125 8.871094 C 5.328125 8.238281 4.960938 7.671875 4.394531 7.410156 Z M 4.449219 9.738281 C 4.441406 9.738281 4.4375 9.734375 4.433594 9.734375 L 3.039062 9.734375 C 3.019531 9.734375 3.003906 9.738281 2.988281 9.742188 C 2.886719 9.65625 2.796875 9.550781 2.730469 9.433594 L 4.699219 9.433594 C 4.632812 9.546875 4.546875 9.652344 4.449219 9.738281 Z M 4.84375 8.953125 L 2.628906 8.953125 C 2.613281 8.953125 2.597656 8.957031 2.585938 8.957031 C 2.582031 8.929688 2.582031 8.902344 2.582031 8.871094 C 2.582031 8.796875 2.589844 8.722656 2.605469 8.648438 C 2.613281 8.648438 2.621094 8.652344 2.628906 8.652344 L 4.828125 8.652344 C 4.839844 8.722656 4.851562 8.796875 4.851562 8.871094 C 4.851562 8.898438 4.847656 8.925781 4.847656 8.953125 C 4.84375 8.953125 4.84375 8.953125 4.84375 8.953125 Z M 3.554688 7.390625 L 3.554688 7.085938 L 3.917969 7.085938 L 3.917969 7.390625 Z M 3.917969 5.828125 L 3.554688 5.828125 L 3.554688 5.523438 L 3.917969 5.523438 Z M 3.554688 6.304688 L 3.917969 6.304688 L 3.917969 6.609375 L 3.554688 6.609375 Z M 3.917969 5.042969 L 3.554688 5.042969 L 3.554688 4.742188 L 3.917969 4.742188 Z M 3.734375 1.5 C 3.832031 1.5 3.917969 1.625 3.917969 1.765625 L 3.917969 4.261719 L 3.554688 4.261719 L 3.554688 1.765625 C 3.554688 1.625 3.640625 1.5 3.734375 1.5 Z M 3.1875 7.867188 C 3.1875 7.867188 3.1875 7.871094 3.191406 7.871094 L 4.246094 7.871094 C 4.386719 7.945312 4.507812 8.050781 4.605469 8.171875 L 2.824219 8.171875 C 2.917969 8.046875 3.042969 7.945312 3.1875 7.867188 Z M 3.1875 7.867188 "/>
<path style=" stroke:none;fill-rule:nonzero;fill:rgb(30.19608%,30.19608%,30.19608%);fill-opacity:1;" d="M 10.597656 5.0625 L 10.808594 5.0625 C 10.941406 5.0625 11.046875 4.953125 11.046875 4.820312 C 11.046875 4.691406 10.941406 4.582031 10.808594 4.582031 L 10.183594 4.582031 C 10.171875 4.503906 10.15625 4.425781 10.136719 4.347656 L 10.714844 4.113281 C 10.839844 4.0625 10.898438 3.925781 10.847656 3.800781 C 10.800781 3.679688 10.660156 3.621094 10.539062 3.667969 L 9.945312 3.90625 C 9.902344 3.832031 9.851562 3.757812 9.792969 3.6875 L 10.25 3.234375 C 10.34375 3.140625 10.34375 2.988281 10.25 2.894531 C 10.15625 2.800781 10.003906 2.800781 9.910156 2.894531 L 9.441406 3.363281 C 9.382812 3.316406 9.320312 3.277344 9.253906 3.242188 L 9.511719 2.625 C 9.566406 2.503906 9.507812 2.363281 9.386719 2.3125 C 9.265625 2.261719 9.125 2.316406 9.074219 2.441406 L 8.800781 3.074219 C 8.722656 3.058594 8.644531 3.046875 8.558594 3.039062 L 8.558594 2.335938 C 8.558594 2.203125 8.453125 2.09375 8.320312 2.09375 C 8.1875 2.09375 8.082031 2.203125 8.082031 2.335938 L 8.082031 3.0625 C 8.015625 3.074219 7.949219 3.089844 7.886719 3.109375 L 7.613281 2.425781 C 7.5625 2.304688 7.421875 2.242188 7.300781 2.292969 C 7.175781 2.34375 7.117188 2.484375 7.167969 2.605469 L 7.453125 3.3125 C 7.390625 3.351562 7.332031 3.390625 7.277344 3.4375 L 6.730469 2.894531 C 6.636719 2.800781 6.488281 2.800781 6.394531 2.894531 C 6.300781 2.988281 6.300781 3.140625 6.394531 3.234375 L 6.949219 3.789062 C 6.914062 3.839844 6.882812 3.886719 6.855469 3.9375 L 6.125 3.628906 C 6.003906 3.578125 5.863281 3.632812 5.8125 3.757812 C 5.757812 3.878906 5.816406 4.019531 5.9375 4.070312 L 6.675781 4.382812 C 6.660156 4.449219 6.648438 4.515625 6.636719 4.582031 L 5.832031 4.582031 C 5.703125 4.582031 5.59375 4.691406 5.59375 4.820312 C 5.59375 4.953125 5.703125 5.0625 5.832031 5.0625 L 6.636719 5.0625 C 6.644531 5.117188 6.65625 5.175781 6.667969 5.230469 L 5.925781 5.53125 C 5.800781 5.582031 5.742188 5.71875 5.792969 5.84375 C 5.832031 5.9375 5.917969 5.992188 6.015625 5.992188 C 6.042969 5.992188 6.074219 5.988281 6.105469 5.976562 L 6.839844 5.679688 C 6.871094 5.738281 6.910156 5.796875 6.949219 5.855469 L 6.394531 6.410156 C 6.300781 6.503906 6.300781 6.65625 6.394531 6.75 C 6.441406 6.796875 6.5 6.820312 6.5625 6.820312 C 6.625 6.820312 6.683594 6.796875 6.730469 6.75 L 7.277344 6.207031 C 7.324219 6.246094 7.375 6.28125 7.425781 6.316406 L 7.128906 7.015625 C 7.074219 7.140625 7.132812 7.28125 7.253906 7.332031 C 7.285156 7.34375 7.316406 7.351562 7.347656 7.351562 C 7.441406 7.351562 7.53125 7.296875 7.570312 7.203125 L 7.859375 6.523438 C 7.929688 6.546875 8.003906 6.566406 8.082031 6.582031 L 8.082031 7.308594 C 8.082031 7.441406 8.1875 7.546875 8.320312 7.546875 C 8.453125 7.546875 8.558594 7.441406 8.558594 7.308594 L 8.558594 6.605469 C 8.632812 6.597656 8.703125 6.589844 8.769531 6.578125 L 9.03125 7.21875 C 9.066406 7.3125 9.15625 7.367188 9.25 7.367188 C 9.28125 7.367188 9.3125 7.363281 9.339844 7.351562 C 9.464844 7.300781 9.523438 7.160156 9.472656 7.039062 L 9.222656 6.417969 C 9.300781 6.375 9.371094 6.332031 9.441406 6.28125 L 9.910156 6.75 C 9.957031 6.796875 10.019531 6.820312 10.078125 6.820312 C 10.140625 6.820312 10.203125 6.796875 10.25 6.75 C 10.34375 6.65625 10.34375 6.503906 10.25 6.410156 L 9.792969 5.957031 C 9.84375 5.898438 9.886719 5.832031 9.929688 5.765625 L 10.515625 6.015625 C 10.546875 6.027344 10.578125 6.035156 10.609375 6.035156 C 10.703125 6.035156 10.792969 5.980469 10.832031 5.886719 C 10.882812 5.765625 10.824219 5.625 10.703125 5.574219 L 10.128906 5.328125 C 10.152344 5.242188 10.171875 5.152344 10.183594 5.0625 Z M 8.410156 6.132812 C 7.6875 6.132812 7.101562 5.546875 7.101562 4.820312 C 7.101562 4.097656 7.6875 3.511719 8.410156 3.511719 C 9.132812 3.511719 9.722656 4.097656 9.722656 4.820312 C 9.722656 5.546875 9.132812 6.132812 8.410156 6.132812 Z M 8.410156 6.132812 "/>
</g>
</svg>
